<mxfile host="app.diagrams.net" agent="Mozilla/5.0 (Windows NT 10.0; Win64; x64) AppleWebKit/537.36 (KHTML, like Gecko) Chrome/140.0.0.0 Safari/537.36" version="28.2.3">
  <diagram name="Page-1" id="9BrX1CqDpOmtENPR8n0L">
    <mxGraphModel dx="1852" dy="3183" grid="1" gridSize="10" guides="1" tooltips="1" connect="1" arrows="1" fold="1" page="1" pageScale="1" pageWidth="827" pageHeight="1169" math="0" shadow="0">
      <root>
        <mxCell id="0" />
        <mxCell id="1" parent="0" />
        <mxCell id="RPmIaeo0nHlJm5fR0ScP-3" value="&lt;font style=&quot;font-size: 24px;&quot;&gt;Chu trình xử lý thông tin: Nhập và xử lý điểm sinh viên&lt;/font&gt;&lt;div&gt;&lt;font style=&quot;font-size: 24px;&quot;&gt;&lt;br&gt;&lt;/font&gt;&lt;/div&gt;" style="swimlane;whiteSpace=wrap;html=1;startSize=75;" vertex="1" parent="1">
          <mxGeometry x="80" y="-2310" width="650" height="1145" as="geometry" />
        </mxCell>
        <mxCell id="RPmIaeo0nHlJm5fR0ScP-6" value="&lt;font style=&quot;font-size: 18px;&quot;&gt;Bắt đầu&amp;nbsp;&lt;/font&gt;" style="ellipse;whiteSpace=wrap;html=1;" vertex="1" parent="RPmIaeo0nHlJm5fR0ScP-3">
          <mxGeometry x="247.5" y="95" width="155" height="105" as="geometry" />
        </mxCell>
        <mxCell id="RPmIaeo0nHlJm5fR0ScP-7" value="&lt;font style=&quot;font-size: 18px;&quot;&gt;Nhập diểm sinh viên&lt;/font&gt;" style="shape=parallelogram;perimeter=parallelogramPerimeter;whiteSpace=wrap;html=1;fixedSize=1;" vertex="1" parent="RPmIaeo0nHlJm5fR0ScP-3">
          <mxGeometry x="213.75" y="265" width="222.5" height="85" as="geometry" />
        </mxCell>
        <mxCell id="RPmIaeo0nHlJm5fR0ScP-8" value="" style="shape=flexArrow;endArrow=classic;html=1;rounded=0;" edge="1" parent="RPmIaeo0nHlJm5fR0ScP-3">
          <mxGeometry width="50" height="50" relative="1" as="geometry">
            <mxPoint x="319" y="200" as="sourcePoint" />
            <mxPoint x="319" y="265" as="targetPoint" />
          </mxGeometry>
        </mxCell>
        <mxCell id="RPmIaeo0nHlJm5fR0ScP-9" value="" style="shape=flexArrow;endArrow=classic;html=1;rounded=0;" edge="1" parent="RPmIaeo0nHlJm5fR0ScP-3" target="RPmIaeo0nHlJm5fR0ScP-11">
          <mxGeometry width="50" height="50" relative="1" as="geometry">
            <mxPoint x="320" y="350" as="sourcePoint" />
            <mxPoint x="320" y="415" as="targetPoint" />
          </mxGeometry>
        </mxCell>
        <mxCell id="RPmIaeo0nHlJm5fR0ScP-11" value="&lt;font style=&quot;font-size: 18px;&quot;&gt;Kiểm tra dữ liệu nhập&lt;/font&gt;" style="rounded=0;whiteSpace=wrap;html=1;" vertex="1" parent="RPmIaeo0nHlJm5fR0ScP-3">
          <mxGeometry x="210" y="405" width="220" height="95" as="geometry" />
        </mxCell>
        <mxCell id="RPmIaeo0nHlJm5fR0ScP-12" value="" style="shape=flexArrow;endArrow=classic;html=1;rounded=0;" edge="1" parent="RPmIaeo0nHlJm5fR0ScP-3" target="RPmIaeo0nHlJm5fR0ScP-13">
          <mxGeometry width="50" height="50" relative="1" as="geometry">
            <mxPoint x="319.57" y="500" as="sourcePoint" />
            <mxPoint x="319.57" y="565" as="targetPoint" />
          </mxGeometry>
        </mxCell>
        <mxCell id="RPmIaeo0nHlJm5fR0ScP-13" value="&lt;font style=&quot;font-size: 18px;&quot;&gt;Dữ liệu hợp lệ ?&lt;/font&gt;" style="rhombus;whiteSpace=wrap;html=1;" vertex="1" parent="RPmIaeo0nHlJm5fR0ScP-3">
          <mxGeometry x="210" y="555" width="220" height="80" as="geometry" />
        </mxCell>
        <mxCell id="RPmIaeo0nHlJm5fR0ScP-14" value="" style="shape=flexArrow;endArrow=classic;html=1;rounded=0;" edge="1" parent="RPmIaeo0nHlJm5fR0ScP-3">
          <mxGeometry width="50" height="50" relative="1" as="geometry">
            <mxPoint x="250" y="615" as="sourcePoint" />
            <mxPoint x="250" y="925" as="targetPoint" />
          </mxGeometry>
        </mxCell>
        <mxCell id="RPmIaeo0nHlJm5fR0ScP-25" value="" style="shape=flexArrow;endArrow=classic;html=1;rounded=0;" edge="1" parent="RPmIaeo0nHlJm5fR0ScP-3">
          <mxGeometry width="50" height="50" relative="1" as="geometry">
            <mxPoint x="380" y="615" as="sourcePoint" />
            <mxPoint x="380" y="680" as="targetPoint" />
          </mxGeometry>
        </mxCell>
        <mxCell id="RPmIaeo0nHlJm5fR0ScP-26" value="&lt;font style=&quot;font-size: 14px;&quot;&gt;Lưu điểm vào CSDL&lt;/font&gt;" style="rounded=0;whiteSpace=wrap;html=1;" vertex="1" parent="RPmIaeo0nHlJm5fR0ScP-3">
          <mxGeometry x="310" y="685" width="160" height="60" as="geometry" />
        </mxCell>
        <mxCell id="RPmIaeo0nHlJm5fR0ScP-27" value="&lt;font style=&quot;font-size: 18px;&quot;&gt;Có&lt;/font&gt;" style="text;html=1;align=center;verticalAlign=middle;resizable=0;points=[];autosize=1;strokeColor=none;fillColor=none;" vertex="1" parent="RPmIaeo0nHlJm5fR0ScP-3">
          <mxGeometry x="386.25" y="620" width="50" height="40" as="geometry" />
        </mxCell>
        <mxCell id="RPmIaeo0nHlJm5fR0ScP-29" value="" style="shape=flexArrow;endArrow=classic;html=1;rounded=0;" edge="1" parent="RPmIaeo0nHlJm5fR0ScP-3" target="RPmIaeo0nHlJm5fR0ScP-30">
          <mxGeometry width="50" height="50" relative="1" as="geometry">
            <mxPoint x="380" y="745" as="sourcePoint" />
            <mxPoint x="380" y="810" as="targetPoint" />
          </mxGeometry>
        </mxCell>
        <mxCell id="RPmIaeo0nHlJm5fR0ScP-30" value="Xuất kết quả (Bảng điểm)" style="shape=parallelogram;perimeter=parallelogramPerimeter;whiteSpace=wrap;html=1;fixedSize=1;" vertex="1" parent="RPmIaeo0nHlJm5fR0ScP-3">
          <mxGeometry x="290" y="810" width="180" height="60" as="geometry" />
        </mxCell>
        <mxCell id="RPmIaeo0nHlJm5fR0ScP-31" value="" style="shape=flexArrow;endArrow=classic;html=1;rounded=0;" edge="1" parent="RPmIaeo0nHlJm5fR0ScP-3">
          <mxGeometry width="50" height="50" relative="1" as="geometry">
            <mxPoint x="379.57" y="870" as="sourcePoint" />
            <mxPoint x="380" y="925" as="targetPoint" />
          </mxGeometry>
        </mxCell>
        <mxCell id="RPmIaeo0nHlJm5fR0ScP-32" value="&lt;font style=&quot;font-size: 18px;&quot;&gt;Nhập lại dữ liệu&lt;/font&gt;" style="rounded=0;whiteSpace=wrap;html=1;" vertex="1" parent="RPmIaeo0nHlJm5fR0ScP-3">
          <mxGeometry x="200" y="925" width="250" height="60" as="geometry" />
        </mxCell>
        <mxCell id="RPmIaeo0nHlJm5fR0ScP-33" value="&lt;font style=&quot;font-size: 18px;&quot;&gt;Kết thúc&lt;/font&gt;" style="ellipse;whiteSpace=wrap;html=1;" vertex="1" parent="RPmIaeo0nHlJm5fR0ScP-3">
          <mxGeometry x="247.5" y="1045" width="120" height="80" as="geometry" />
        </mxCell>
        <mxCell id="RPmIaeo0nHlJm5fR0ScP-34" value="" style="shape=flexArrow;endArrow=classic;html=1;rounded=0;" edge="1" parent="RPmIaeo0nHlJm5fR0ScP-3">
          <mxGeometry width="50" height="50" relative="1" as="geometry">
            <mxPoint x="310" y="985" as="sourcePoint" />
            <mxPoint x="310" y="1050" as="targetPoint" />
          </mxGeometry>
        </mxCell>
        <mxCell id="RPmIaeo0nHlJm5fR0ScP-28" value="&lt;font style=&quot;font-size: 18px;&quot;&gt;Không&lt;/font&gt;" style="text;html=1;align=center;verticalAlign=middle;resizable=0;points=[];autosize=1;strokeColor=none;fillColor=none;" vertex="1" parent="RPmIaeo0nHlJm5fR0ScP-3">
          <mxGeometry x="170" y="725" width="80" height="40" as="geometry" />
        </mxCell>
        <mxCell id="RPmIaeo0nHlJm5fR0ScP-42" value="&lt;font style=&quot;font-size: 24px;&quot;&gt;Thiết bị&amp;nbsp;&lt;/font&gt;" style="swimlane;whiteSpace=wrap;html=1;startSize=40;" vertex="1" parent="1">
          <mxGeometry x="50" y="-1130" width="390" height="290" as="geometry" />
        </mxCell>
        <mxCell id="RPmIaeo0nHlJm5fR0ScP-43" value="&lt;span style=&quot;font-size: 18px;&quot;&gt;Input: Bàn phím, Chuột, Máy tính&lt;/span&gt;" style="text;html=1;align=center;verticalAlign=middle;resizable=0;points=[];autosize=1;strokeColor=none;fillColor=none;" vertex="1" parent="RPmIaeo0nHlJm5fR0ScP-42">
          <mxGeometry x="10" y="60" width="290" height="40" as="geometry" />
        </mxCell>
        <mxCell id="RPmIaeo0nHlJm5fR0ScP-44" value="&lt;span style=&quot;font-size: 18px;&quot;&gt;Processing: CPU máy tính&lt;/span&gt;" style="text;html=1;align=center;verticalAlign=middle;resizable=0;points=[];autosize=1;strokeColor=none;fillColor=none;" vertex="1" parent="RPmIaeo0nHlJm5fR0ScP-42">
          <mxGeometry x="10" y="110" width="230" height="40" as="geometry" />
        </mxCell>
        <mxCell id="RPmIaeo0nHlJm5fR0ScP-45" value="&lt;span style=&quot;font-size: 18px;&quot;&gt;Storage: Ổ cứng máy chủ, Máy chủ mạng&lt;/span&gt;" style="text;html=1;align=center;verticalAlign=middle;resizable=0;points=[];autosize=1;strokeColor=none;fillColor=none;" vertex="1" parent="RPmIaeo0nHlJm5fR0ScP-42">
          <mxGeometry x="10" y="160" width="360" height="40" as="geometry" />
        </mxCell>
        <mxCell id="RPmIaeo0nHlJm5fR0ScP-46" value="&lt;span style=&quot;font-size: 18px;&quot;&gt;Output: Màn hình, máy in&lt;/span&gt;" style="text;html=1;align=center;verticalAlign=middle;resizable=0;points=[];autosize=1;strokeColor=none;fillColor=none;" vertex="1" parent="RPmIaeo0nHlJm5fR0ScP-42">
          <mxGeometry x="20" y="220" width="230" height="40" as="geometry" />
        </mxCell>
        <mxCell id="RPmIaeo0nHlJm5fR0ScP-48" value="&lt;font style=&quot;font-size: 24px;&quot;&gt;Phần mềm&amp;nbsp;&lt;/font&gt;" style="swimlane;whiteSpace=wrap;html=1;startSize=40;" vertex="1" parent="1">
          <mxGeometry x="510" y="-1130" width="390" height="290" as="geometry" />
        </mxCell>
        <mxCell id="RPmIaeo0nHlJm5fR0ScP-49" value="&lt;span style=&quot;font-size: 18px;&quot;&gt;Input: Excel, Google sheets&lt;/span&gt;" style="text;html=1;align=center;verticalAlign=middle;resizable=0;points=[];autosize=1;strokeColor=none;fillColor=none;" vertex="1" parent="RPmIaeo0nHlJm5fR0ScP-48">
          <mxGeometry x="15" y="60" width="240" height="40" as="geometry" />
        </mxCell>
        <mxCell id="RPmIaeo0nHlJm5fR0ScP-50" value="&lt;span style=&quot;font-size: 18px;&quot;&gt;Processing: Phần mềm quản lý điểm&lt;/span&gt;" style="text;html=1;align=center;verticalAlign=middle;resizable=0;points=[];autosize=1;strokeColor=none;fillColor=none;" vertex="1" parent="RPmIaeo0nHlJm5fR0ScP-48">
          <mxGeometry x="10" y="110" width="320" height="40" as="geometry" />
        </mxCell>
        <mxCell id="RPmIaeo0nHlJm5fR0ScP-51" value="&lt;span style=&quot;font-size: 18px;&quot;&gt;Storage: MySQL, Microsoft SQL sever&lt;/span&gt;" style="text;html=1;align=center;verticalAlign=middle;resizable=0;points=[];autosize=1;strokeColor=none;fillColor=none;" vertex="1" parent="RPmIaeo0nHlJm5fR0ScP-48">
          <mxGeometry x="15" y="160" width="330" height="40" as="geometry" />
        </mxCell>
        <mxCell id="RPmIaeo0nHlJm5fR0ScP-52" value="&lt;span style=&quot;font-size: 18px;&quot;&gt;Output: Phần mềm SIS, excel , docs&lt;/span&gt;" style="text;html=1;align=center;verticalAlign=middle;resizable=0;points=[];autosize=1;strokeColor=none;fillColor=none;" vertex="1" parent="RPmIaeo0nHlJm5fR0ScP-48">
          <mxGeometry x="15" y="220" width="310" height="40" as="geometry" />
        </mxCell>
      </root>
    </mxGraphModel>
  </diagram>
</mxfile>
